<?xml version="1.0" encoding="UTF-8" standalone="no"?>
<!-- Created with Inkscape (http://www.inkscape.org/) -->

<svg
   xmlns:dc="http://purl.org/dc/elements/1.1/"
   xmlns:cc="http://creativecommons.org/ns#"
   xmlns:rdf="http://www.w3.org/1999/02/22-rdf-syntax-ns#"
   xmlns:svg="http://www.w3.org/2000/svg"
   xmlns="http://www.w3.org/2000/svg"
   xmlns:sodipodi="http://sodipodi.sourceforge.net/DTD/sodipodi-0.dtd"
   xmlns:inkscape="http://www.inkscape.org/namespaces/inkscape"
   width="470"
   height="470"
   id="svg2"
   version="1.1"
   inkscape:version="0.48.4 r9939"
   sodipodi:docname="credits.svg"
   inkscape:export-filename="/home/mostafa/source/gravity/resources/images/credits.png"
   inkscape:export-xdpi="98.040001"
   inkscape:export-ydpi="98.040001">
  <defs
     id="defs4" />
  <sodipodi:namedview
     id="base"
     pagecolor="#ffffff"
     bordercolor="#666666"
     borderopacity="1.0"
     inkscape:pageopacity="0.0"
     inkscape:pageshadow="2"
     inkscape:zoom="0.49497475"
     inkscape:cx="-134.62739"
     inkscape:cy="246.79018"
     inkscape:document-units="px"
     inkscape:current-layer="g3978"
     showgrid="false"
     showguides="true"
     inkscape:guide-bbox="true"
     fit-margin-top="0"
     fit-margin-left="0"
     fit-margin-right="0"
     fit-margin-bottom="0"
     inkscape:window-width="1855"
     inkscape:window-height="1056"
     inkscape:window-x="65"
     inkscape:window-y="24"
     inkscape:window-maximized="1" />
  <metadata
     id="metadata7">
    <rdf:RDF>
      <cc:Work
         rdf:about="">
        <dc:format>image/svg+xml</dc:format>
        <dc:type
           rdf:resource="http://purl.org/dc/dcmitype/StillImage" />
        <dc:title></dc:title>
      </cc:Work>
    </rdf:RDF>
  </metadata>
  <g
     inkscape:label="Layer 1"
     inkscape:groupmode="layer"
     id="layer1"
     transform="translate(-121.96239,-325.00199)">
    <g
       id="g3978"
       transform="translate(-650,-14.285715)">
      <path
         style="fill:#ef914a;stroke:none"
         d="m 862.72826,808.44996 c -0.8136,-0.43739 -5.34834,-1.72112 -10.07721,-2.85277 -37.93782,-9.07887 -66.96697,-38.20091 -76.72269,-76.96828 -1.05943,-4.20999 -1.93305,-9.07265 -1.94139,-10.80582 -0.008,-1.73317 -0.45892,-3.42595 -1.00132,-3.76163 -1.36434,-0.84436 -1.36434,-278.63595 0,-279.48034 0.5424,-0.33569 0.98619,-1.86035 0.98619,-3.38812 0,-6.31678 5.06096,-22.65075 10.27182,-33.1517 14.24581,-28.70826 40.55063,-49.31246 70.59514,-55.29624 4.6104,-0.91821 9.15315,-2.0732 10.09499,-2.56662 2.21616,-1.16103 283.48391,-1.20036 284.20021,-0.0397 0.291,0.47157 2.802,1.15931 5.5797,1.52832 7.5875,1.00792 20.107,5.23682 29.5101,9.968 26.7898,13.47944 45.8174,37.42248 53.7069,67.58123 1.216,4.64856 2.6101,9.34074 3.0979,10.42706 1.3897,3.09496 1.1592,288.22191 -0.2343,289.94481 -0.6167,0.7624 -1.4472,3.38606 -1.8455,5.83028 -0.3982,2.44422 -1.9685,8.12033 -3.4894,12.61364 -11.3815,33.62484 -39.4982,59.38414 -73.7675,67.58259 -4.6931,1.12276 -9.3035,2.42506 -10.2453,2.89395 -2.1623,1.07664 -286.714,1.01877 -288.71834,-0.0583 z"
         id="path3005"
         inkscape:connector-curvature="0"
         inkscape:export-filename="/home/mostafa/source/gravity/resources/images/mute.png"
         inkscape:export-xdpi="98.040001"
         inkscape:export-ydpi="98.040001" />
      <text
         xml:space="preserve"
         style="font-size:344px;font-style:normal;font-weight:normal;line-height:125%;letter-spacing:0px;word-spacing:0px;fill:#000000;fill-opacity:1;stroke:none;font-family:Sans"
         x="936.24811"
         y="703.57343"
         id="text2990"
         sodipodi:linespacing="125%"><tspan
           sodipodi:role="line"
           id="tspan2992"
           x="936.24811"
           y="703.57343"
           style="font-size:450px;font-style:italic;font-variant:normal;font-weight:normal;font-stretch:normal;fill:#ffffff;stroke:#ffffff;stroke-width:17.60000038;stroke-miterlimit:4;stroke-opacity:1;stroke-dasharray:none;font-family:Times New Roman;-inkscape-font-specification:Times New Roman">i</tspan></text>
    </g>
    <path
       style="fill:#000000"
       d=""
       id="path3974"
       inkscape:connector-curvature="0" />
    <path
       style="fill:#000000"
       d=""
       id="path3972"
       inkscape:connector-curvature="0" />
  </g>
</svg>
