<?xml version="1.0" encoding="UTF-8" standalone="no"?>
<!-- Created with Inkscape (http://www.inkscape.org/) -->

<svg
   xmlns:dc="http://purl.org/dc/elements/1.1/"
   xmlns:cc="http://creativecommons.org/ns#"
   xmlns:rdf="http://www.w3.org/1999/02/22-rdf-syntax-ns#"
   xmlns:svg="http://www.w3.org/2000/svg"
   xmlns="http://www.w3.org/2000/svg"
   xmlns:sodipodi="http://sodipodi.sourceforge.net/DTD/sodipodi-0.dtd"
   xmlns:inkscape="http://www.inkscape.org/namespaces/inkscape"
   width="400.26144"
   height="326.45715"
   id="svg5754"
   version="1.1"
   inkscape:version="0.48.4 r9939"
   sodipodi:docname="enemy1.svg"
   inkscape:export-filename="/home/mostafa/source/gravity/resources/images/enemy1.png"
   inkscape:export-xdpi="141.15175"
   inkscape:export-ydpi="141.15175">
  <defs
     id="defs5756" />
  <sodipodi:namedview
     id="base"
     pagecolor="#ffffff"
     bordercolor="#666666"
     borderopacity="1.0"
     inkscape:pageopacity="0.0"
     inkscape:pageshadow="2"
     inkscape:zoom="0.35"
     inkscape:cx="206.25"
     inkscape:cy="150.37143"
     inkscape:document-units="px"
     inkscape:current-layer="layer1"
     showgrid="false"
     fit-margin-top="0"
     fit-margin-left="0"
     fit-margin-right="0"
     fit-margin-bottom="0"
     inkscape:window-width="1855"
     inkscape:window-height="1056"
     inkscape:window-x="65"
     inkscape:window-y="24"
     inkscape:window-maximized="1" />
  <metadata
     id="metadata5759">
    <rdf:RDF>
      <cc:Work
         rdf:about="">
        <dc:format>image/svg+xml</dc:format>
        <dc:type
           rdf:resource="http://purl.org/dc/dcmitype/StillImage" />
        <dc:title></dc:title>
      </cc:Work>
    </rdf:RDF>
  </metadata>
  <g
     inkscape:label="Layer 1"
     inkscape:groupmode="layer"
     id="layer1"
     transform="translate(-168.75,-356.27647)">
    <path
       style="fill:#c4c4c4;stroke:none"
       inkscape:connector-curvature="0"
       d="m 338.22656,356.66697 2.14774,-0.3905 57.2081,0 2.14774,0.3905 0,8.78622 -2.14774,-1.36674 -57.2081,0 -2.14774,1.36674 0,-8.78622 m 98.60099,23.42993 28.50642,0 3.51449,0.781 2.73349,2.14775 95.8675,121.64043 1.562,3.51449 -0.19525,3.70974 -49.20287,165.57156 q -0.97625,2.7335 -3.51449,4.49074 l -5.66224,0.781 -16.5962,-3.31924 2.14774,-7.61473 16.01046,3.31924 49.20287,-165.57157 -95.8675,-121.64043 -16.40096,0 -12.10546,-7.80998 m -192.9065,299.31747 -16.5962,3.31924 -5.66224,-0.781 -3.51449,-4.49074 -49.20287,-165.57156 -0.19525,-3.70974 1.562,-3.51449 95.86749,-121.64043 2.7335,-2.14775 3.51449,-0.781 28.89692,0 -12.10547,7.80998 -16.79145,0 -95.8675,121.64043 49.20287,165.57157 16.01046,-3.31924 2.14774,7.61473"
       id="path2120" />
    <path
       style="fill:#eeeeee;stroke:none"
       inkscape:connector-curvature="0"
       d="m 338.22656,365.45319 2.14774,-1.36674 57.2081,0 2.14774,1.36674 15.81521,112.85421 -46.66463,-19.52495 -46.46937,19.52495 15.81521,-112.85421 m -49.00763,22.45369 -12.88646,8.20048 q -2.14775,1.1715 -3.12399,3.51449 -0.97625,2.343 -0.3905,4.88124 l 6.24798,25.38243 -81.61429,94.50076 45.10264,147.21811 -0.781,0.19525 -16.01046,3.31924 -49.20287,-165.57157 95.8675,-121.64043 16.79145,0 m 169.67181,41.97864 6.05273,-25.38243 q 0.58575,-2.53824 -0.3905,-4.88124 l -2.92874,-3.51449 -12.69122,-8.20048 16.40096,0 95.8675,121.64043 -49.20287,165.57157 -16.01046,-3.31924 -0.781,-0.19525 45.10263,-147.21811 -81.41903,-94.50076"
       id="path2122" />
    <path
       style="fill:#a1a1a1;stroke:none"
       inkscape:connector-curvature="0"
       d="m 458.89074,429.88552 -7.02898,28.31118 -24.60144,100.55349 -8.20048,34.16866 0,0.39049 -3.70974,14.44847 -8.20048,33.58291 q -0.58574,2.53824 -2.73349,4.29549 -2.14774,1.56199 -4.88124,1.56199 l -61.11309,0 q -2.73349,0 -4.68598,-1.56199 -2.343,-1.75725 -2.92875,-4.29549 l -8.20047,-33.77816 -3.70974,-15.03421 -8.20048,-33.77816 -24.79669,-100.55349 -6.83373,-28.31118 -6.24798,-25.38243 q -0.58575,-2.53824 0.3905,-4.88124 0.97624,-2.34299 3.12399,-3.51449 l 12.88646,-8.20048 12.10547,-7.80998 34.94966,-22.45369 q 0.97625,-0.78099 1.9525,-0.97624 l 0,8.78622 -57.79385,37.09741 57.98909,236.83762 61.11309,0 57.79385,-236.83762 -57.5986,-37.09741 0,-8.78622 2.14775,0.97624 34.94966,22.45369 12.10546,7.80998 12.69122,8.20048 2.92874,3.51449 q 0.97625,2.343 0.3905,4.88124 l -6.05273,25.38243"
       id="path2124" />
    <path
       style="fill:#337287;stroke:none"
       inkscape:connector-curvature="0"
       d="m 285.89969,458.1967 24.79669,100.55349 -55.25561,0 -15.61996,-49.78862 43.93114,-50.76487 2.14774,0 m 165.96207,0 2.14774,0 43.93114,50.76487 -15.61996,49.78862 -55.06036,0 24.60144,-100.55349"
       id="path2126" />
    <path
       style="fill:#3e88a1;stroke:none"
       inkscape:connector-curvature="0"
       d="m 451.86176,458.1967 7.02898,-28.31118 81.41903,94.50076 -45.10263,147.21811 -11.51972,-2.34299 10.73872,-43.15014 -74.78055,-24.99194 -0.58575,-7.80998 0,-0.39049 8.20048,-34.16866 55.06036,0 15.61996,-49.78862 -43.93114,-50.76487 -2.14774,0 m -172.7958,-28.31118 6.83373,28.31118 -2.14774,0 -43.93114,50.76487 15.61996,49.78862 55.25561,0 8.20048,33.77816 -0.781,8.59097 -74.78056,24.99194 10.73873,43.15014 -11.51972,2.34299 -45.10264,-147.21811 81.61429,-94.50076"
       id="path2128" />
    <path
       style="fill:#dbdbdb;stroke:none"
       inkscape:connector-curvature="0"
       d="m 338.22656,365.45319 -15.81521,112.85421 46.46937,-19.52495 46.66463,19.52495 -15.81521,-112.85421 57.5986,37.09741 -57.79385,236.83762 -61.11309,0 -57.98909,-236.83762 57.79385,-37.09741 m 30.65416,106.99672 -46.46937,19.52495 17.3772,70.68032 1.9525,8.39572 27.13967,14.25322 27.33493,-14.05797 0,-0.19525 19.3297,-79.07604 -46.66463,-19.52495"
       id="path2130" />
    <path
       style="fill:#4a3c55;stroke:none"
       inkscape:connector-curvature="0"
       d="m 368.88072,472.44991 0,105.04423 -27.13967,-14.25322 0,-0.58574 -1.9525,0 -17.3772,-70.68032 46.46937,-19.52495"
       id="path2132" />
    <path
       style="fill:#544763;stroke:none"
       inkscape:connector-curvature="0"
       d="m 368.88072,472.44991 46.66463,19.52495 -19.3297,79.07604 0,0.19525 -27.33493,14.05797 -27.13967,-14.25322 -1.9525,-8.39572 1.9525,0 0,0.58574 27.13967,14.25322 0,-105.04423"
       id="path2134" />
    <path
       style="fill:#2b5866;stroke:none"
       inkscape:connector-curvature="0"
       d="m 493.8404,679.41437 -11.71497,-2.53824 -3.70974,-1.75725 -2.14775,-3.51449 q -0.781,-2.14775 -0.19525,-4.10024 l 8.98148,-36.3164 -67.75157,-22.64895 -1.9525,-0.78099 3.70974,-14.44847 0.58575,7.80998 74.78055,24.99194 -10.73872,43.15014 11.51972,2.34299 0.781,0.19525 -2.14774,7.61473 m -171.2338,-71.85181 -2.14775,0.97624 -67.75157,22.64895 8.98148,36.3164 -0.19525,4.10024 -2.14775,3.51449 -3.70974,1.75725 -11.71497,2.53824 -2.14774,-7.61473 0.781,-0.19525 11.51972,-2.34299 -10.73873,-43.15014 74.78056,-24.99194 0.781,-8.59097 3.70974,15.03421"
       id="path2136" />
  </g>
</svg>
