<?xml version="1.0" encoding="UTF-8" standalone="no"?>
<!-- Created with Inkscape (http://www.inkscape.org/) -->

<svg
   xmlns:dc="http://purl.org/dc/elements/1.1/"
   xmlns:cc="http://creativecommons.org/ns#"
   xmlns:rdf="http://www.w3.org/1999/02/22-rdf-syntax-ns#"
   xmlns:svg="http://www.w3.org/2000/svg"
   xmlns="http://www.w3.org/2000/svg"
   xmlns:sodipodi="http://sodipodi.sourceforge.net/DTD/sodipodi-0.dtd"
   xmlns:inkscape="http://www.inkscape.org/namespaces/inkscape"
   width="744.09448819"
   height="1052.3622047"
   id="svg2"
   version="1.1"
   inkscape:version="0.48.4 r9939"
   sodipodi:docname="New document 1">
  <defs
     id="defs4" />
  <sodipodi:namedview
     id="base"
     pagecolor="#ffffff"
     bordercolor="#666666"
     borderopacity="1.0"
     inkscape:pageopacity="0.0"
     inkscape:pageshadow="2"
     inkscape:zoom="0.98994949"
     inkscape:cx="28.855816"
     inkscape:cy="566.70104"
     inkscape:document-units="px"
     inkscape:current-layer="layer1"
     showgrid="false"
     inkscape:window-width="1855"
     inkscape:window-height="1056"
     inkscape:window-x="65"
     inkscape:window-y="24"
     inkscape:window-maximized="1" />
  <metadata
     id="metadata7">
    <rdf:RDF>
      <cc:Work
         rdf:about="">
        <dc:format>image/svg+xml</dc:format>
        <dc:type
           rdf:resource="http://purl.org/dc/dcmitype/StillImage" />
        <dc:title></dc:title>
      </cc:Work>
    </rdf:RDF>
  </metadata>
  <g
     inkscape:label="Layer 1"
     inkscape:groupmode="layer"
     id="layer1">
    <path
       style="fill:#6a706a;fill-opacity:1;stroke:none"
       d="M 306.1875 728.34375 C 306.14011 726.19456 306.08869 724.04169 305.875 721.9375 C 305.60188 719.24813 305.18909 716.6039 304.65625 714 C 304.12341 711.3961 303.46665 708.84879 302.6875 706.34375 C 301.90835 703.83871 301.01206 701.36152 300 698.96875 C 298.98794 696.57598 297.85656 694.26709 296.625 692 C 295.39344 689.73291 294.06266 687.53426 292.625 685.40625 C 291.18734 683.27824 289.63035 681.22553 288 679.25 C 286.36965 677.27447 284.65339 675.37214 282.84375 673.5625 C 281.03411 671.75286 279.13178 670.0366 277.15625 668.40625 C 275.18072 666.7759 273.12801 665.21891 271 663.78125 C 268.87199 662.34359 266.67334 661.01281 264.40625 659.78125 C 262.13916 658.54969 259.79902 657.41831 257.40625 656.40625 C 255.01348 655.39419 252.56754 654.4979 250.0625 653.71875 C 247.55746 652.9396 245.01015 652.28284 242.40625 651.75 C 239.80235 651.21716 237.15812 650.80437 234.46875 650.53125 C 231.77938 650.25813 229.04267 650.125 226.28125 650.125 C 223.51983 650.125 220.78312 650.25813 218.09375 650.53125 C 215.40438 650.80437 212.76015 651.21716 210.15625 651.75 C 207.55235 652.28284 205.00504 652.9396 202.5 653.71875 C 199.99496 654.4979 197.51777 655.39419 195.125 656.40625 C 192.73223 657.41831 190.42334 658.54969 188.15625 659.78125 C 186.0493 660.92582 183.98724 662.17701 182 663.5 C 215.73422 695.88123 258.51001 718.8916 306.1875 728.34375 z "
       id="path3800" />
    <path
       style="fill:#cfcdce;fill-opacity:1;stroke:none"
       d="M 355.0625 233.15625 C 216.99131 233.15625 105.0625 345.08506 105.0625 483.15625 C 105.0625 554.04317 134.6031 618.00407 182 663.5 C 183.98724 662.17701 186.0493 660.92582 188.15625 659.78125 C 190.42334 658.54969 192.73223 657.41831 195.125 656.40625 C 197.51777 655.39419 199.99496 654.4979 202.5 653.71875 C 205.00504 652.9396 207.55235 652.28284 210.15625 651.75 C 212.76015 651.21716 215.40438 650.80437 218.09375 650.53125 C 220.78312 650.25813 223.51983 650.125 226.28125 650.125 C 229.04267 650.125 231.77938 650.25813 234.46875 650.53125 C 237.15812 650.80437 239.80235 651.21716 242.40625 651.75 C 245.01015 652.28284 247.55746 652.9396 250.0625 653.71875 C 252.56754 654.4979 255.01348 655.39419 257.40625 656.40625 C 259.79902 657.41831 262.13916 658.54969 264.40625 659.78125 C 266.67334 661.01281 268.87199 662.34359 271 663.78125 C 273.12801 665.21891 275.18072 666.7759 277.15625 668.40625 C 279.13178 670.0366 281.03411 671.75286 282.84375 673.5625 C 284.65339 675.37214 286.36965 677.27447 288 679.25 C 289.63035 681.22553 291.18734 683.27824 292.625 685.40625 C 294.06266 687.53426 295.39344 689.73291 296.625 692 C 297.85656 694.26709 298.98794 696.57598 300 698.96875 C 301.01206 701.36152 301.90835 703.83871 302.6875 706.34375 C 303.46665 708.84879 304.12341 711.3961 304.65625 714 C 305.18909 716.6039 305.60188 719.24813 305.875 721.9375 C 306.08869 724.04169 306.14011 726.19456 306.1875 728.34375 C 321.99837 731.47828 338.33122 733.15625 355.0625 733.15625 C 493.13369 733.15625 605.0625 621.22744 605.0625 483.15625 C 605.0625 345.08506 493.13369 233.15625 355.0625 233.15625 z "
       id="path2985" />
    <path
       sodipodi:type="arc"
       style="fill:#847d84;fill-opacity:1;stroke:none"
       id="path3755"
       sodipodi:cx="392.44427"
       sodipodi:cy="384.65134"
       sodipodi:rx="43.941635"
       sodipodi:ry="51.51778"
       d="m 436.38591,384.65134 a 43.941635,51.51778 0 1 1 -87.88327,0 43.941635,51.51778 0 1 1 87.88327,0 z"
       transform="matrix(1.8205968,0,0,1.5528619,-445.58426,-164.3697)" />
    <path
       sodipodi:type="arc"
       style="fill:#847d84;fill-opacity:1;stroke:none"
       id="path3755-7"
       sodipodi:cx="392.44427"
       sodipodi:cy="384.65134"
       sodipodi:rx="43.941635"
       sodipodi:ry="51.51778"
       d="m 436.38591,384.65134 a 43.941635,51.51778 0 1 1 -87.88327,0 43.941635,51.51778 0 1 1 87.88327,0 z"
       transform="matrix(0.6827238,0,0,0.58232323,199.26705,331.87825)" />
  </g>
</svg>
