<?xml version="1.0" encoding="UTF-8" standalone="no"?>
<!-- Created with Inkscape (http://www.inkscape.org/) -->

<svg
   xmlns:dc="http://purl.org/dc/elements/1.1/"
   xmlns:cc="http://creativecommons.org/ns#"
   xmlns:rdf="http://www.w3.org/1999/02/22-rdf-syntax-ns#"
   xmlns:svg="http://www.w3.org/2000/svg"
   xmlns="http://www.w3.org/2000/svg"
   xmlns:sodipodi="http://sodipodi.sourceforge.net/DTD/sodipodi-0.dtd"
   xmlns:inkscape="http://www.inkscape.org/namespaces/inkscape"
   width="744.09448819"
   height="1052.3622047"
   id="svg6114"
   version="1.1"
   inkscape:version="0.48.4 r9939"
   sodipodi:docname="sun.svg">
  <defs
     id="defs6116" />
  <sodipodi:namedview
     id="base"
     pagecolor="#ffffff"
     bordercolor="#666666"
     borderopacity="1.0"
     inkscape:pageopacity="0.0"
     inkscape:pageshadow="2"
     inkscape:zoom="1.4"
     inkscape:cx="339.20341"
     inkscape:cy="390.50435"
     inkscape:document-units="px"
     inkscape:current-layer="layer1"
     showgrid="false"
     inkscape:window-width="1855"
     inkscape:window-height="1056"
     inkscape:window-x="65"
     inkscape:window-y="24"
     inkscape:window-maximized="1" />
  <metadata
     id="metadata6119">
    <rdf:RDF>
      <cc:Work
         rdf:about="">
        <dc:format>image/svg+xml</dc:format>
        <dc:type
           rdf:resource="http://purl.org/dc/dcmitype/StillImage" />
        <dc:title></dc:title>
      </cc:Work>
    </rdf:RDF>
  </metadata>
  <g
     inkscape:label="Layer 1"
     inkscape:groupmode="layer"
     id="layer1">
    <path
       style="fill:#ff4500;fill-opacity:1;stroke:none"
       d="m 557.49794,782.04777 c -0.19481,-0.55381 -0.30387,-1.14991 -0.53125,-1.6875 -0.7229,-1.70912 -1.5981,-3.32374 -2.625,-4.84375 -1.0269,-1.52001 -2.2074,-2.92615 -3.5,-4.21875 -1.2926,-1.2926 -2.69874,-2.4731 -4.21875,-3.5 -1.52001,-1.0269 -3.16588,-1.9021 -4.875,-2.625 -1.70912,-0.7229 -3.48382,-1.3069 -5.34375,-1.6875 -1.85993,-0.3806 -3.8088,-0.5625 -5.78125,-0.5625 -1.97245,0 -3.89007,0.1819 -5.75,0.5625 -1.85993,0.3806 -3.63463,0.9646 -5.34375,1.6875 -1.70912,0.7229 -3.35499,1.5981 -4.875,2.625 -1.52001,1.0269 -2.92615,2.2074 -4.21875,3.5 -1.2926,1.2926 -2.4731,2.69874 -3.5,4.21875 -1.0269,1.52001 -1.9021,3.13463 -2.625,4.84375 -0.7229,1.70912 -1.27565,3.51507 -1.65625,5.375 -0.3806,1.85993 -0.59375,3.77755 -0.59375,5.75 0,1.97245 0.21315,3.89007 0.59375,5.75 0.3806,1.85993 0.93335,3.66588 1.65625,5.375 0.7229,1.70912 1.5981,3.32374 2.625,4.84375 1.0269,1.52001 2.2074,2.9574 3.5,4.25 0.26799,0.26799 0.59658,0.46153 0.875,0.71875 16.69156,-8.19934 32.1769,-18.43313 46.1875,-30.375 z"
       id="path6663"
       inkscape:connector-curvature="0"
       inkscape:export-filename="/home/mostafa/source/gravity/resources/images/sun.png"
       inkscape:export-xdpi="207.39241"
       inkscape:export-ydpi="207.39241" />
    <path
       style="fill:#ffd700;fill-opacity:1;stroke:none"
       d="m 413.49794,390.73527 c -122.7084,0 -222.18749,99.4791 -222.18749,222.1875 0,122.7084 99.47909,222.1875 222.18749,222.1875 35.10852,0 68.29351,-8.18699 97.8125,-22.6875 -0.27842,-0.25722 -0.60701,-0.45076 -0.875,-0.71875 -1.2926,-1.2926 -2.4731,-2.72999 -3.5,-4.25 -1.0269,-1.52001 -1.9021,-3.13463 -2.625,-4.84375 -0.7229,-1.70912 -1.27565,-3.51507 -1.65625,-5.375 -0.3806,-1.85993 -0.59375,-3.77755 -0.59375,-5.75 0,-1.97245 0.21315,-3.89007 0.59375,-5.75 0.3806,-1.85993 0.93335,-3.66588 1.65625,-5.375 0.7229,-1.70912 1.5981,-3.32374 2.625,-4.84375 1.0269,-1.52001 2.2074,-2.92615 3.5,-4.21875 1.2926,-1.2926 2.69874,-2.4731 4.21875,-3.5 1.52001,-1.0269 3.16588,-1.9021 4.875,-2.625 1.70912,-0.7229 3.48382,-1.3069 5.34375,-1.6875 1.85993,-0.3806 3.77755,-0.5625 5.75,-0.5625 1.97245,0 3.92132,0.1819 5.78125,0.5625 1.85993,0.3806 3.63463,0.9646 5.34375,1.6875 1.70912,0.7229 3.35499,1.5981 4.875,2.625 1.52001,1.0269 2.92615,2.2074 4.21875,3.5 1.2926,1.2926 2.4731,2.69874 3.5,4.21875 1.0269,1.52001 1.9021,3.13463 2.625,4.84375 0.22738,0.53759 0.33644,1.13369 0.53125,1.6875 47.81272,-40.75296 78.1875,-101.37729 78.1875,-169.125 0,-122.7084 -99.4791,-222.1875 -222.1875,-222.1875 z"
       id="path6122"
       inkscape:connector-curvature="0"
       inkscape:export-filename="/home/mostafa/source/gravity/resources/images/sun.png"
       inkscape:export-xdpi="207.39241"
       inkscape:export-ydpi="207.39241" />
    <path
       sodipodi:type="arc"
       style="fill:#ff7800;fill-opacity:1;stroke:none"
       id="path6632"
       sodipodi:cx="437.14285"
       sodipodi:cy="469.50504"
       sodipodi:rx="30"
       sodipodi:ry="37.142857"
       d="m 467.14285,469.50504 a 30,37.142857 0 1 1 -60,0 30,37.142857 0 1 1 60,0 z"
       transform="matrix(1.25,0,0,1.0096154,28.018892,160.28832)"
       inkscape:export-filename="/home/mostafa/source/gravity/resources/images/sun.png"
       inkscape:export-xdpi="207.39241"
       inkscape:export-ydpi="207.39241" />
    <path
       sodipodi:type="arc"
       style="fill:#ff5e00;fill-opacity:1;stroke:none"
       id="path6634"
       sodipodi:cx="299.28571"
       sodipodi:cy="597.36218"
       sodipodi:rx="16.428572"
       sodipodi:ry="16.428572"
       d="m 315.71428,597.36218 a 16.428572,16.428572 0 1 1 -32.85715,0 16.428572,16.428572 0 1 1 32.85715,0 z"
       transform="translate(129.8046,165.15994)"
       inkscape:export-filename="/home/mostafa/source/gravity/resources/images/sun.png"
       inkscape:export-xdpi="207.39241"
       inkscape:export-ydpi="207.39241" />
    <path
       sodipodi:type="arc"
       style="fill:#ff4500;fill-opacity:0.78431374;stroke:none"
       id="path6668"
       sodipodi:cx="351.42856"
       sodipodi:cy="560.2193"
       sodipodi:rx="41.42857"
       sodipodi:ry="41.42857"
       d="m 392.85713,560.2193 a 41.42857,41.42857 0 1 1 -82.85714,0 41.42857,41.42857 0 1 1 82.85714,0 z"
       transform="matrix(1.4482759,0,0,1.4482759,-138.96553,-269.70425)"
       inkscape:export-filename="/home/mostafa/source/gravity/resources/images/sun.png"
       inkscape:export-xdpi="207.39241"
       inkscape:export-ydpi="207.39241" />
  </g>
</svg>
