<?xml version="1.0" encoding="UTF-8" standalone="no"?>
<!-- Created with Inkscape (http://www.inkscape.org/) -->

<svg
   xmlns:dc="http://purl.org/dc/elements/1.1/"
   xmlns:cc="http://creativecommons.org/ns#"
   xmlns:rdf="http://www.w3.org/1999/02/22-rdf-syntax-ns#"
   xmlns:svg="http://www.w3.org/2000/svg"
   xmlns="http://www.w3.org/2000/svg"
   xmlns:sodipodi="http://sodipodi.sourceforge.net/DTD/sodipodi-0.dtd"
   xmlns:inkscape="http://www.inkscape.org/namespaces/inkscape"
   width="470"
   height="470"
   id="svg2"
   version="1.1"
   inkscape:version="0.48.4 r9939"
   sodipodi:docname="unmute.svg"
   inkscape:export-filename="/home/mostafa/source/gravity/resources/images/unmute.png"
   inkscape:export-xdpi="98.040001"
   inkscape:export-ydpi="98.040001">
  <defs
     id="defs4" />
  <sodipodi:namedview
     id="base"
     pagecolor="#ffffff"
     bordercolor="#666666"
     borderopacity="1.0"
     inkscape:pageopacity="0.0"
     inkscape:pageshadow="2"
     inkscape:zoom="0.7"
     inkscape:cx="-267.02244"
     inkscape:cy="193.85792"
     inkscape:document-units="px"
     inkscape:current-layer="g3978"
     showgrid="false"
     showguides="true"
     inkscape:guide-bbox="true"
     fit-margin-top="0"
     fit-margin-left="0"
     fit-margin-right="0"
     fit-margin-bottom="0"
     inkscape:window-width="1855"
     inkscape:window-height="1056"
     inkscape:window-x="65"
     inkscape:window-y="24"
     inkscape:window-maximized="1" />
  <metadata
     id="metadata7">
    <rdf:RDF>
      <cc:Work
         rdf:about="">
        <dc:format>image/svg+xml</dc:format>
        <dc:type
           rdf:resource="http://purl.org/dc/dcmitype/StillImage" />
        <dc:title></dc:title>
      </cc:Work>
    </rdf:RDF>
  </metadata>
  <g
     inkscape:label="Layer 1"
     inkscape:groupmode="layer"
     id="layer1"
     transform="translate(-121.96239,-325.00199)">
    <g
       id="g3978"
       transform="translate(-650,-14.285715)">
      <path
         style="fill:#ef914a;stroke:none"
         d="m 862.72826,808.44996 c -0.8136,-0.43739 -5.34834,-1.72112 -10.07721,-2.85277 -37.93782,-9.07887 -66.96697,-38.20091 -76.72269,-76.96828 -1.05943,-4.20999 -1.93305,-9.07265 -1.94139,-10.80582 -0.008,-1.73317 -0.45892,-3.42595 -1.00132,-3.76163 -1.36434,-0.84436 -1.36434,-278.63595 0,-279.48034 0.5424,-0.33569 0.98619,-1.86035 0.98619,-3.38812 0,-6.31678 5.06096,-22.65075 10.27182,-33.1517 14.24581,-28.70826 40.55063,-49.31246 70.59514,-55.29624 4.6104,-0.91821 9.15315,-2.0732 10.09499,-2.56662 2.21616,-1.16103 283.48391,-1.20036 284.20021,-0.0397 0.291,0.47157 2.802,1.15931 5.5797,1.52832 7.5875,1.00792 20.107,5.23682 29.5101,9.968 26.7898,13.47944 45.8174,37.42248 53.7069,67.58123 1.216,4.64856 2.6101,9.34074 3.0979,10.42706 1.3897,3.09496 1.1592,288.22191 -0.2343,289.94481 -0.6167,0.7624 -1.4472,3.38606 -1.8455,5.83028 -0.3982,2.44422 -1.9685,8.12033 -3.4894,12.61364 -11.3815,33.62484 -39.4982,59.38414 -73.7675,67.58259 -4.6931,1.12276 -9.3035,2.42506 -10.2453,2.89395 -2.1623,1.07664 -286.714,1.01877 -288.71834,-0.0583 z"
         id="path3005"
         inkscape:connector-curvature="0"
         inkscape:export-filename="/home/mostafa/source/gravity/resources/images/mute.png"
         inkscape:export-xdpi="98.040001"
         inkscape:export-ydpi="98.040001" />
      <path
         style="fill:#ffffff;fill-opacity:1;stroke:none"
         d="m 1010.1626,729.48651 c 4.8343,-2.22311 7.1734,-4.76006 8.9261,-9.68118 1.9937,-5.598 1.9937,-272.53176 0,-278.12975 -1.7919,-5.03144 -4.1194,-7.48887 -9.2838,-9.80218 -4.9194,-2.20355 -10.81668,-1.80986 -15.05798,1.00525 -1.41074,0.93636 -17.77072,19.47861 -36.35546,41.20499 -18.58476,21.72638 -34.50931,39.80458 -35.3879,40.17377 -0.87859,0.3692 -15.62189,0.70251 -32.7629,0.74067 -30.72726,0.0684 -31.21223,0.10099 -34.49291,2.31494 -1.83011,1.23503 -4.33653,3.74497 -5.56984,5.57764 l -2.24239,3.33212 0,54.51765 0,54.51764 2.24239,3.33214 c 1.23328,1.83263 3.73973,4.34261 5.56984,5.57766 3.28068,2.21391 3.76565,2.2465 34.49291,2.31494 17.14101,0.0385 31.88431,0.37142 32.7629,0.74067 0.87859,0.36915 16.80724,18.44738 35.39701,40.17377 18.58974,21.7264 34.65425,40.10465 35.69882,40.84058 4.72493,3.32878 10.55411,3.78187 16.06321,1.24868 z"
         id="path3001"
         inkscape:connector-curvature="0"
         inkscape:export-filename="/home/mostafa/source/gravity/resources/images/mute.png"
         inkscape:export-xdpi="98.040001"
         inkscape:export-ydpi="98.040001" />
      <path
         style="fill:#ffffff;fill-opacity:1;stroke:none"
         d="m 966.26094,660.98902 c -15.46751,-18.01482 -29.66854,-33.66354 -31.55786,-34.77499 -3.19685,-1.88065 -5.48737,-2.05508 -33.02061,-2.51461 l -29.58547,-0.49378 0,-42.46521 0,-42.4652 29.09238,-0.49378 c 26.18,-0.44436 29.47724,-0.68502 32.93684,-2.40405 2.80051,-1.39154 11.49312,-10.84442 32.01174,-34.81159 15.49204,-18.09574 28.51783,-32.90133 28.94613,-32.90133 0.4283,0 0.77879,50.88418 0.77879,113.07595 0,62.1918 -0.33284,113.05948 -0.73964,113.03934 -0.4068,-0.0198 -13.39482,-14.77602 -28.8623,-32.79075 z"
         id="path2999"
         inkscape:connector-curvature="0"
         inkscape:export-filename="/home/mostafa/source/gravity/resources/images/mute.png"
         inkscape:export-xdpi="98.040001"
         inkscape:export-ydpi="98.040001" />
      <rect
         style="fill:#ffffff;fill-opacity:1;stroke:#ffffff;stroke-width:26.56000137;stroke-linejoin:round;stroke-miterlimit:4;stroke-opacity:1;stroke-dasharray:none"
         id="rect4015"
         width="27.113033"
         height="125.62372"
         x="370.98056"
         y="1145.0023"
         transform="matrix(0.70710678,-0.70710678,0.70710678,0.70710678,0,0)" />
      <rect
         style="fill:#ffffff;fill-opacity:1;stroke:#ffffff;stroke-width:26.56000137;stroke-linejoin:round;stroke-miterlimit:4;stroke-opacity:1;stroke-dasharray:none"
         id="rect4015-3"
         width="27.113033"
         height="125.62372"
         x="-1221.7748"
         y="322.12924"
         transform="matrix(-0.70710678,-0.70710678,0.70710678,-0.70710678,0,0)" />
    </g>
    <path
       style="fill:#000000"
       d=""
       id="path3974"
       inkscape:connector-curvature="0" />
    <path
       style="fill:#000000"
       d=""
       id="path3972"
       inkscape:connector-curvature="0" />
  </g>
</svg>
